<mxfile host="app.diagrams.net" modified="2021-04-08T09:44:05.302Z" agent="5.0 (Windows NT 10.0; Win64; x64) AppleWebKit/537.36 (KHTML, like Gecko) Chrome/89.0.4389.114 Safari/537.36" etag="Xg4GaAHxI2AWbjcFFWyn" version="14.5.8" type="github">
  <diagram id="Jy9rQ6N7cdQHkvzqlRbM" name="Page-1">
    <mxGraphModel dx="1038" dy="600" grid="1" gridSize="10" guides="1" tooltips="1" connect="1" arrows="1" fold="1" page="1" pageScale="1" pageWidth="850" pageHeight="1100" math="0" shadow="0">
      <root>
        <mxCell id="0" />
        <mxCell id="1" parent="0" />
        <UserObject label="" plantUmlData="{&quot;data&quot;:&quot;@startuml\nclass Main  {\n\n}\n\nclass Tournament  {\n-due date\n-type of tournament\n-results\n}\n\n\nclass Match  {\n-date\n-participant\n-match result()\n}\n\nclass Team  {\n-name\n-ID\n}\n\nclass Player  {\n-name\n-ID\n-setter()\n}\n\nclass UI  {\n-IO\n-get set player()\n}\n\nclass IO  {\n\n}\n\n\nMain &lt;|-- Tournament\nTournament o-- Team\nTeam o-- Player\nMain &lt;|-- UI\nTournament *-- Match\nUI *-- IO\nIO o-- data.txt\n\n@enduml&quot;,&quot;format&quot;:&quot;svg&quot;}" id="31SdvtUfB5avd8OB42zB-2">
          <mxCell style="shape=image;noLabel=1;verticalAlign=top;aspect=fixed;imageAspect=0;image=data:image/svg+xml,PD94bWwgdmVyc2lvbj0iMS4wIiBlbmNvZGluZz0iVVRGLTgiIHN0YW5kYWxvbmU9Im5vIj8+PHN2ZyB4bWxucz0iaHR0cDovL3d3dy53My5vcmcvMjAwMC9zdmciIHhtbG5zOnhsaW5rPSJodHRwOi8vd3d3LnczLm9yZy8xOTk5L3hsaW5rIiBjb250ZW50U2NyaXB0VHlwZT0iYXBwbGljYXRpb24vZWNtYXNjcmlwdCIgY29udGVudFN0eWxlVHlwZT0idGV4dC9jc3MiIGhlaWdodD0iNTA1cHgiIHByZXNlcnZlQXNwZWN0UmF0aW89Im5vbmUiIHN0eWxlPSJ3aWR0aDozNzRweDtoZWlnaHQ6NTA1cHg7IiB2ZXJzaW9uPSIxLjEiIHZpZXdCb3g9IjAgMCAzNzQgNTA1IiB3aWR0aD0iMzc0cHgiIHpvb21BbmRQYW49Im1hZ25pZnkiPjxkZWZzPjxmaWx0ZXIgaGVpZ2h0PSIzMDAlIiBpZD0iZjUxZjQ5emw2YWF4YiIgd2lkdGg9IjMwMCUiIHg9Ii0xIiB5PSItMSI+PGZlR2F1c3NpYW5CbHVyIHJlc3VsdD0iYmx1ck91dCIgc3RkRGV2aWF0aW9uPSIyLjAiLz48ZmVDb2xvck1hdHJpeCBpbj0iYmx1ck91dCIgcmVzdWx0PSJibHVyT3V0MiIgdHlwZT0ibWF0cml4IiB2YWx1ZXM9IjAgMCAwIDAgMCAwIDAgMCAwIDAgMCAwIDAgMCAwIDAgMCAwIC40IDAiLz48ZmVPZmZzZXQgZHg9IjQuMCIgZHk9IjQuMCIgaW49ImJsdXJPdXQyIiByZXN1bHQ9ImJsdXJPdXQzIi8+PGZlQmxlbmQgaW49IlNvdXJjZUdyYXBoaWMiIGluMj0iYmx1ck91dDMiIG1vZGU9Im5vcm1hbCIvPjwvZmlsdGVyPjwvZGVmcz48Zz48IS0tTUQ1PVtkY2U0YzJiNTY5NGRkMjgyMjNlN2IxZDE2MGJhOTZjNF0KY2x1c3RlciBkYXRhLS0+PHBvbHlnb24gZmlsbD0iI0ZGRkZGRiIgZmlsdGVyPSJ1cmwoI2Y1MWY0OXpsNmFheGIpIiBwb2ludHM9IjI2NS41LDM5MiwzMDkuNSwzOTIsMzE2LjUsNDE0LjI5NjksMzQ1LjUsNDE0LjI5NjksMzQ1LjUsNDkxLDI2NS41LDQ5MSwyNjUuNSwzOTIiIHN0eWxlPSJzdHJva2U6ICMwMDAwMDA7IHN0cm9rZS13aWR0aDogMS41OyIvPjxsaW5lIHN0eWxlPSJzdHJva2U6ICMwMDAwMDA7IHN0cm9rZS13aWR0aDogMS41OyIgeDE9IjI2NS41IiB4Mj0iMzE2LjUiIHkxPSI0MTQuMjk2OSIgeTI9IjQxNC4yOTY5Ii8+PHRleHQgZmlsbD0iIzAwMDAwMCIgZm9udC1mYW1pbHk9InNhbnMtc2VyaWYiIGZvbnQtc2l6ZT0iMTQiIGZvbnQtd2VpZ2h0PSJib2xkIiBsZW5ndGhBZGp1c3Q9InNwYWNpbmdBbmRHbHlwaHMiIHRleHRMZW5ndGg9IjM4IiB4PSIyNjkuNSIgeT0iNDA2Ljk5NTEiPmRhdGE8L3RleHQ+PCEtLU1ENT1bNDk4N2I0Yzc3NGZlZjZkMTg1YTE5YzMzYjNjZmE3MjZdCmNsYXNzIGRhdGEudHh0LS0+PHJlY3QgZmlsbD0iI0ZFRkVDRSIgZmlsdGVyPSJ1cmwoI2Y1MWY0OXpsNmFheGIpIiBoZWlnaHQ9IjQ4IiBpZD0iZGF0YS50eHQiIHN0eWxlPSJzdHJva2U6ICNBODAwMzY7IHN0cm9rZS13aWR0aDogMS41OyIgd2lkdGg9IjQ3IiB4PSIyODIiIHk9IjQyNyIvPjxlbGxpcHNlIGN4PSIyOTciIGN5PSI0NDMiIGZpbGw9IiNBREQxQjIiIHJ4PSIxMSIgcnk9IjExIiBzdHlsZT0ic3Ryb2tlOiAjQTgwMDM2OyBzdHJva2Utd2lkdGg6IDEuMDsiLz48cGF0aCBkPSJNMjk5LjM0MzgsNDM4LjY3MTkgQzI5OC40MDYzLDQzOC4yMzQ0IDI5Ny44MTI1LDQzOC4wOTM4IDI5Ni45Mzc1LDQzOC4wOTM4IEMyOTQuMzEyNSw0MzguMDkzOCAyOTIuMzEyNSw0NDAuMTcxOSAyOTIuMzEyNSw0NDIuODkwNiBMMjkyLjMxMjUsNDQ0LjAxNTYgQzI5Mi4zMTI1LDQ0Ni41OTM4IDI5NC40MjE5LDQ0OC40ODQ0IDI5Ny4zMTI1LDQ0OC40ODQ0IEMyOTguNTMxMyw0NDguNDg0NCAyOTkuNjg3NSw0NDguMTg3NSAzMDAuNDM3NSw0NDcuNjQwNiBDMzAxLjAxNTYsNDQ3LjIzNDQgMzAxLjM0MzgsNDQ2Ljc4MTMgMzAxLjM0MzgsNDQ2LjM5MDYgQzMwMS4zNDM4LDQ0NS45Mzc1IDMwMC45NTMxLDQ0NS41NDY5IDMwMC40ODQ0LDQ0NS41NDY5IEMzMDAuMjY1Niw0NDUuNTQ2OSAzMDAuMDYyNSw0NDUuNjI1IDI5OS44NzUsNDQ1LjgxMjUgQzI5OS40MjE5LDQ0Ni4yOTY5IDI5OS40MjE5LDQ0Ni4yOTY5IDI5OS4yMzQ0LDQ0Ni4zOTA2IEMyOTguODEyNSw0NDYuNjU2MyAyOTguMTI1LDQ0Ni43ODEzIDI5Ny4zNTk0LDQ0Ni43ODEzIEMyOTUuMzEyNSw0NDYuNzgxMyAyOTQuMDE1Niw0NDUuNjg3NSAyOTQuMDE1Niw0NDMuOTg0NCBMMjk0LjAxNTYsNDQyLjg5MDYgQzI5NC4wMTU2LDQ0MS4xMDk0IDI5NS4yNjU2LDQzOS43OTY5IDI5Nyw0MzkuNzk2OSBDMjk3LjU3ODEsNDM5Ljc5NjkgMjk4LjE4NzUsNDM5Ljk1MzEgMjk4LjY1NjMsNDQwLjIwMzEgQzI5OS4xNDA2LDQ0MC40ODQ0IDI5OS4zMTI1LDQ0MC43MDMxIDI5OS40MDYzLDQ0MS4xMDk0IEMyOTkuNDY4OCw0NDEuNTE1NiAyOTkuNSw0NDEuNjQwNiAyOTkuNjQwNiw0NDEuNzY1NiBDMjk5Ljc4MTMsNDQxLjkwNjMgMzAwLjAxNTYsNDQyLjAxNTYgMzAwLjIzNDQsNDQyLjAxNTYgQzMwMC41LDQ0Mi4wMTU2IDMwMC43NjU2LDQ0MS44NzUgMzAwLjkzNzUsNDQxLjY1NjMgQzMwMS4wNDY5LDQ0MS41IDMwMS4wNzgxLDQ0MS4zMTI1IDMwMS4wNzgxLDQ0MC44OTA2IEwzMDEuMDc4MSw0MzkuNDY4OCBDMzAxLjA3ODEsNDM5LjAzMTMgMzAxLjA2MjUsNDM4LjkwNjMgMzAwLjk2ODgsNDM4Ljc1IEMzMDAuODEyNSw0MzguNDg0NCAzMDAuNTMxMyw0MzguMzQzOCAzMDAuMjM0NCw0MzguMzQzOCBDMjk5LjkzNzUsNDM4LjM0MzggMjk5LjczNDQsNDM4LjQzNzUgMjk5LjUxNTYsNDM4Ljc1IEwyOTkuMzQzOCw0MzguNjcxOSBaICIvPjx0ZXh0IGZpbGw9IiMwMDAwMDAiIGZvbnQtZmFtaWx5PSJzYW5zLXNlcmlmIiBmb250LXNpemU9IjEyIiBsZW5ndGhBZGp1c3Q9InNwYWNpbmdBbmRHbHlwaHMiIHRleHRMZW5ndGg9IjE1IiB4PSIzMTEiIHk9IjQ0Ny4xNTQzIj50eHQ8L3RleHQ+PGxpbmUgc3R5bGU9InN0cm9rZTogI0E4MDAzNjsgc3Ryb2tlLXdpZHRoOiAxLjU7IiB4MT0iMjgzIiB4Mj0iMzI4IiB5MT0iNDU5IiB5Mj0iNDU5Ii8+PGxpbmUgc3R5bGU9InN0cm9rZTogI0E4MDAzNjsgc3Ryb2tlLXdpZHRoOiAxLjU7IiB4MT0iMjgzIiB4Mj0iMzI4IiB5MT0iNDY3IiB5Mj0iNDY3Ii8+PCEtLU1ENT1bODQ3MTg3NzZkMjE0YmU0ODBlNGMyNTllZmNiNzM3ZmNdCmNsYXNzIE1haW4tLT48cmVjdCBmaWxsPSIjRkVGRUNFIiBmaWx0ZXI9InVybCgjZjUxZjQ5emw2YWF4YikiIGhlaWdodD0iNDgiIGlkPSJNYWluIiBzdHlsZT0ic3Ryb2tlOiAjQTgwMDM2OyBzdHJva2Utd2lkdGg6IDEuNTsiIHdpZHRoPSI1OSIgeD0iMTk1IiB5PSI4Ii8+PGVsbGlwc2UgY3g9IjIxMCIgY3k9IjI0IiBmaWxsPSIjQUREMUIyIiByeD0iMTEiIHJ5PSIxMSIgc3R5bGU9InN0cm9rZTogI0E4MDAzNjsgc3Ryb2tlLXdpZHRoOiAxLjA7Ii8+PHBhdGggZD0iTTIxMi4zNDM4LDE5LjY3MTkgQzIxMS40MDYzLDE5LjIzNDQgMjEwLjgxMjUsMTkuMDkzOCAyMDkuOTM3NSwxOS4wOTM4IEMyMDcuMzEyNSwxOS4wOTM4IDIwNS4zMTI1LDIxLjE3MTkgMjA1LjMxMjUsMjMuODkwNiBMMjA1LjMxMjUsMjUuMDE1NiBDMjA1LjMxMjUsMjcuNTkzOCAyMDcuNDIxOSwyOS40ODQ0IDIxMC4zMTI1LDI5LjQ4NDQgQzIxMS41MzEzLDI5LjQ4NDQgMjEyLjY4NzUsMjkuMTg3NSAyMTMuNDM3NSwyOC42NDA2IEMyMTQuMDE1NiwyOC4yMzQ0IDIxNC4zNDM4LDI3Ljc4MTMgMjE0LjM0MzgsMjcuMzkwNiBDMjE0LjM0MzgsMjYuOTM3NSAyMTMuOTUzMSwyNi41NDY5IDIxMy40ODQ0LDI2LjU0NjkgQzIxMy4yNjU2LDI2LjU0NjkgMjEzLjA2MjUsMjYuNjI1IDIxMi44NzUsMjYuODEyNSBDMjEyLjQyMTksMjcuMjk2OSAyMTIuNDIxOSwyNy4yOTY5IDIxMi4yMzQ0LDI3LjM5MDYgQzIxMS44MTI1LDI3LjY1NjMgMjExLjEyNSwyNy43ODEzIDIxMC4zNTk0LDI3Ljc4MTMgQzIwOC4zMTI1LDI3Ljc4MTMgMjA3LjAxNTYsMjYuNjg3NSAyMDcuMDE1NiwyNC45ODQ0IEwyMDcuMDE1NiwyMy44OTA2IEMyMDcuMDE1NiwyMi4xMDk0IDIwOC4yNjU2LDIwLjc5NjkgMjEwLDIwLjc5NjkgQzIxMC41NzgxLDIwLjc5NjkgMjExLjE4NzUsMjAuOTUzMSAyMTEuNjU2MywyMS4yMDMxIEMyMTIuMTQwNiwyMS40ODQ0IDIxMi4zMTI1LDIxLjcwMzEgMjEyLjQwNjMsMjIuMTA5NCBDMjEyLjQ2ODgsMjIuNTE1NiAyMTIuNSwyMi42NDA2IDIxMi42NDA2LDIyLjc2NTYgQzIxMi43ODEzLDIyLjkwNjMgMjEzLjAxNTYsMjMuMDE1NiAyMTMuMjM0NCwyMy4wMTU2IEMyMTMuNSwyMy4wMTU2IDIxMy43NjU2LDIyLjg3NSAyMTMuOTM3NSwyMi42NTYzIEMyMTQuMDQ2OSwyMi41IDIxNC4wNzgxLDIyLjMxMjUgMjE0LjA3ODEsMjEuODkwNiBMMjE0LjA3ODEsMjAuNDY4OCBDMjE0LjA3ODEsMjAuMDMxMyAyMTQuMDYyNSwxOS45MDYzIDIxMy45Njg4LDE5Ljc1IEMyMTMuODEyNSwxOS40ODQ0IDIxMy41MzEzLDE5LjM0MzggMjEzLjIzNDQsMTkuMzQzOCBDMjEyLjkzNzUsMTkuMzQzOCAyMTIuNzM0NCwxOS40Mzc1IDIxMi41MTU2LDE5Ljc1IEwyMTIuMzQzOCwxOS42NzE5IFogIi8+PHRleHQgZmlsbD0iIzAwMDAwMCIgZm9udC1mYW1pbHk9InNhbnMtc2VyaWYiIGZvbnQtc2l6ZT0iMTIiIGxlbmd0aEFkanVzdD0ic3BhY2luZ0FuZEdseXBocyIgdGV4dExlbmd0aD0iMjciIHg9IjIyNCIgeT0iMjguMTU0MyI+TWFpbjwvdGV4dD48bGluZSBzdHlsZT0ic3Ryb2tlOiAjQTgwMDM2OyBzdHJva2Utd2lkdGg6IDEuNTsiIHgxPSIxOTYiIHgyPSIyNTMiIHkxPSI0MCIgeTI9IjQwIi8+PGxpbmUgc3R5bGU9InN0cm9rZTogI0E4MDAzNjsgc3Ryb2tlLXdpZHRoOiAxLjU7IiB4MT0iMTk2IiB4Mj0iMjUzIiB5MT0iNDgiIHkyPSI0OCIvPjwhLS1NRDU9W2E0YjRkMzI0ZmQyNjg0ZGJiOWJkNmEwZWFmNzg4MmIyXQpjbGFzcyBUb3VybmFtZW50LS0+PHJlY3QgZmlsbD0iI0ZFRkVDRSIgZmlsdGVyPSJ1cmwoI2Y1MWY0OXpsNmFheGIpIiBoZWlnaHQ9Ijg2LjQxNDEiIGlkPSJUb3VybmFtZW50IiBzdHlsZT0ic3Ryb2tlOiAjQTgwMDM2OyBzdHJva2Utd2lkdGg6IDEuNTsiIHdpZHRoPSIxMzciIHg9Ijc2IiB5PSIxMTYiLz48ZWxsaXBzZSBjeD0iMTA2LjMiIGN5PSIxMzIiIGZpbGw9IiNBREQxQjIiIHJ4PSIxMSIgcnk9IjExIiBzdHlsZT0ic3Ryb2tlOiAjQTgwMDM2OyBzdHJva2Utd2lkdGg6IDEuMDsiLz48cGF0aCBkPSJNMTA4LjY0MzgsMTI3LjY3MTkgQzEwNy43MDYzLDEyNy4yMzQ0IDEwNy4xMTI1LDEyNy4wOTM4IDEwNi4yMzc1LDEyNy4wOTM4IEMxMDMuNjEyNSwxMjcuMDkzOCAxMDEuNjEyNSwxMjkuMTcxOSAxMDEuNjEyNSwxMzEuODkwNiBMMTAxLjYxMjUsMTMzLjAxNTYgQzEwMS42MTI1LDEzNS41OTM4IDEwMy43MjE5LDEzNy40ODQ0IDEwNi42MTI1LDEzNy40ODQ0IEMxMDcuODMxMywxMzcuNDg0NCAxMDguOTg3NSwxMzcuMTg3NSAxMDkuNzM3NSwxMzYuNjQwNiBDMTEwLjMxNTYsMTM2LjIzNDQgMTEwLjY0MzgsMTM1Ljc4MTMgMTEwLjY0MzgsMTM1LjM5MDYgQzExMC42NDM4LDEzNC45Mzc1IDExMC4yNTMxLDEzNC41NDY5IDEwOS43ODQ0LDEzNC41NDY5IEMxMDkuNTY1NiwxMzQuNTQ2OSAxMDkuMzYyNSwxMzQuNjI1IDEwOS4xNzUsMTM0LjgxMjUgQzEwOC43MjE5LDEzNS4yOTY5IDEwOC43MjE5LDEzNS4yOTY5IDEwOC41MzQ0LDEzNS4zOTA2IEMxMDguMTEyNSwxMzUuNjU2MyAxMDcuNDI1LDEzNS43ODEzIDEwNi42NTk0LDEzNS43ODEzIEMxMDQuNjEyNSwxMzUuNzgxMyAxMDMuMzE1NiwxMzQuNjg3NSAxMDMuMzE1NiwxMzIuOTg0NCBMMTAzLjMxNTYsMTMxLjg5MDYgQzEwMy4zMTU2LDEzMC4xMDk0IDEwNC41NjU2LDEyOC43OTY5IDEwNi4zLDEyOC43OTY5IEMxMDYuODc4MSwxMjguNzk2OSAxMDcuNDg3NSwxMjguOTUzMSAxMDcuOTU2MywxMjkuMjAzMSBDMTA4LjQ0MDYsMTI5LjQ4NDQgMTA4LjYxMjUsMTI5LjcwMzEgMTA4LjcwNjMsMTMwLjEwOTQgQzEwOC43Njg4LDEzMC41MTU2IDEwOC44LDEzMC42NDA2IDEwOC45NDA2LDEzMC43NjU2IEMxMDkuMDgxMywxMzAuOTA2MyAxMDkuMzE1NiwxMzEuMDE1NiAxMDkuNTM0NCwxMzEuMDE1NiBDMTA5LjgsMTMxLjAxNTYgMTEwLjA2NTYsMTMwLjg3NSAxMTAuMjM3NSwxMzAuNjU2MyBDMTEwLjM0NjksMTMwLjUgMTEwLjM3ODEsMTMwLjMxMjUgMTEwLjM3ODEsMTI5Ljg5MDYgTDExMC4zNzgxLDEyOC40Njg4IEMxMTAuMzc4MSwxMjguMDMxMyAxMTAuMzYyNSwxMjcuOTA2MyAxMTAuMjY4OCwxMjcuNzUgQzExMC4xMTI1LDEyNy40ODQ0IDEwOS44MzEzLDEyNy4zNDM4IDEwOS41MzQ0LDEyNy4zNDM4IEMxMDkuMjM3NSwxMjcuMzQzOCAxMDkuMDM0NCwxMjcuNDM3NSAxMDguODE1NiwxMjcuNzUgTDEwOC42NDM4LDEyNy42NzE5IFogIi8+PHRleHQgZmlsbD0iIzAwMDAwMCIgZm9udC1mYW1pbHk9InNhbnMtc2VyaWYiIGZvbnQtc2l6ZT0iMTIiIGxlbmd0aEFkanVzdD0ic3BhY2luZ0FuZEdseXBocyIgdGV4dExlbmd0aD0iNzEiIHg9IjEyMy43IiB5PSIxMzYuMTU0MyI+VG91cm5hbWVudDwvdGV4dD48bGluZSBzdHlsZT0ic3Ryb2tlOiAjQTgwMDM2OyBzdHJva2Utd2lkdGg6IDEuNTsiIHgxPSI3NyIgeDI9IjIxMiIgeTE9IjE0OCIgeTI9IjE0OCIvPjxyZWN0IGZpbGw9Im5vbmUiIGhlaWdodD0iNiIgc3R5bGU9InN0cm9rZTogI0M4MjkzMDsgc3Ryb2tlLXdpZHRoOiAxLjA7IiB3aWR0aD0iNiIgeD0iODQiIHk9IjE1NiIvPjx0ZXh0IGZpbGw9IiMwMDAwMDAiIGZvbnQtZmFtaWx5PSJzYW5zLXNlcmlmIiBmb250LXNpemU9IjExIiBsZW5ndGhBZGp1c3Q9InNwYWNpbmdBbmRHbHlwaHMiIHRleHRMZW5ndGg9IjUyIiB4PSI5NiIgeT0iMTYyLjIxMDQiPmR1ZSBkYXRlPC90ZXh0PjxyZWN0IGZpbGw9Im5vbmUiIGhlaWdodD0iNiIgc3R5bGU9InN0cm9rZTogI0M4MjkzMDsgc3Ryb2tlLXdpZHRoOiAxLjA7IiB3aWR0aD0iNiIgeD0iODQiIHk9IjE2OC44MDQ3Ii8+PHRleHQgZmlsbD0iIzAwMDAwMCIgZm9udC1mYW1pbHk9InNhbnMtc2VyaWYiIGZvbnQtc2l6ZT0iMTEiIGxlbmd0aEFkanVzdD0ic3BhY2luZ0FuZEdseXBocyIgdGV4dExlbmd0aD0iMTExIiB4PSI5NiIgeT0iMTc1LjAxNTEiPnR5cGUgb2YgdG91cm5hbWVudDwvdGV4dD48cmVjdCBmaWxsPSJub25lIiBoZWlnaHQ9IjYiIHN0eWxlPSJzdHJva2U6ICNDODI5MzA7IHN0cm9rZS13aWR0aDogMS4wOyIgd2lkdGg9IjYiIHg9Ijg0IiB5PSIxODEuNjA5NCIvPjx0ZXh0IGZpbGw9IiMwMDAwMDAiIGZvbnQtZmFtaWx5PSJzYW5zLXNlcmlmIiBmb250LXNpemU9IjExIiBsZW5ndGhBZGp1c3Q9InNwYWNpbmdBbmRHbHlwaHMiIHRleHRMZW5ndGg9IjM4IiB4PSI5NiIgeT0iMTg3LjgxOTgiPnJlc3VsdHM8L3RleHQ+PGxpbmUgc3R5bGU9InN0cm9rZTogI0E4MDAzNjsgc3Ryb2tlLXdpZHRoOiAxLjU7IiB4MT0iNzciIHgyPSIyMTIiIHkxPSIxOTQuNDE0MSIgeTI9IjE5NC40MTQxIi8+PCEtLU1ENT1bNWYwODk5MTM2ZWQ4ZjUyM2IxOGVkMDU3NzljMjQxMTJdCmNsYXNzIE1hdGNoLS0+PHJlY3QgZmlsbD0iI0ZFRkVDRSIgZmlsdGVyPSJ1cmwoI2Y1MWY0OXpsNmFheGIpIiBoZWlnaHQ9Ijg2LjQxNDEiIGlkPSJNYXRjaCIgc3R5bGU9InN0cm9rZTogI0E4MDAzNjsgc3Ryb2tlLXdpZHRoOiAxLjU7IiB3aWR0aD0iMTA1IiB4PSI2IiB5PSIyNjIiLz48ZWxsaXBzZSBjeD0iMzguMSIgY3k9IjI3OCIgZmlsbD0iI0FERDFCMiIgcng9IjExIiByeT0iMTEiIHN0eWxlPSJzdHJva2U6ICNBODAwMzY7IHN0cm9rZS13aWR0aDogMS4wOyIvPjxwYXRoIGQ9Ik00MC40NDM4LDI3My42NzE5IEMzOS41MDYzLDI3My4yMzQ0IDM4LjkxMjUsMjczLjA5MzggMzguMDM3NSwyNzMuMDkzOCBDMzUuNDEyNSwyNzMuMDkzOCAzMy40MTI1LDI3NS4xNzE5IDMzLjQxMjUsMjc3Ljg5MDYgTDMzLjQxMjUsMjc5LjAxNTYgQzMzLjQxMjUsMjgxLjU5MzggMzUuNTIxOSwyODMuNDg0NCAzOC40MTI1LDI4My40ODQ0IEMzOS42MzEzLDI4My40ODQ0IDQwLjc4NzUsMjgzLjE4NzUgNDEuNTM3NSwyODIuNjQwNiBDNDIuMTE1NiwyODIuMjM0NCA0Mi40NDM4LDI4MS43ODEzIDQyLjQ0MzgsMjgxLjM5MDYgQzQyLjQ0MzgsMjgwLjkzNzUgNDIuMDUzMSwyODAuNTQ2OSA0MS41ODQ0LDI4MC41NDY5IEM0MS4zNjU2LDI4MC41NDY5IDQxLjE2MjUsMjgwLjYyNSA0MC45NzUsMjgwLjgxMjUgQzQwLjUyMTksMjgxLjI5NjkgNDAuNTIxOSwyODEuMjk2OSA0MC4zMzQ0LDI4MS4zOTA2IEMzOS45MTI1LDI4MS42NTYzIDM5LjIyNSwyODEuNzgxMyAzOC40NTk0LDI4MS43ODEzIEMzNi40MTI1LDI4MS43ODEzIDM1LjExNTYsMjgwLjY4NzUgMzUuMTE1NiwyNzguOTg0NCBMMzUuMTE1NiwyNzcuODkwNiBDMzUuMTE1NiwyNzYuMTA5NCAzNi4zNjU2LDI3NC43OTY5IDM4LjEsMjc0Ljc5NjkgQzM4LjY3ODEsMjc0Ljc5NjkgMzkuMjg3NSwyNzQuOTUzMSAzOS43NTYzLDI3NS4yMDMxIEM0MC4yNDA2LDI3NS40ODQ0IDQwLjQxMjUsMjc1LjcwMzEgNDAuNTA2MywyNzYuMTA5NCBDNDAuNTY4OCwyNzYuNTE1NiA0MC42LDI3Ni42NDA2IDQwLjc0MDYsMjc2Ljc2NTYgQzQwLjg4MTMsMjc2LjkwNjMgNDEuMTE1NiwyNzcuMDE1NiA0MS4zMzQ0LDI3Ny4wMTU2IEM0MS42LDI3Ny4wMTU2IDQxLjg2NTYsMjc2Ljg3NSA0Mi4wMzc1LDI3Ni42NTYzIEM0Mi4xNDY5LDI3Ni41IDQyLjE3ODEsMjc2LjMxMjUgNDIuMTc4MSwyNzUuODkwNiBMNDIuMTc4MSwyNzQuNDY4OCBDNDIuMTc4MSwyNzQuMDMxMyA0Mi4xNjI1LDI3My45MDYzIDQyLjA2ODgsMjczLjc1IEM0MS45MTI1LDI3My40ODQ0IDQxLjYzMTMsMjczLjM0MzggNDEuMzM0NCwyNzMuMzQzOCBDNDEuMDM3NSwyNzMuMzQzOCA0MC44MzQ0LDI3My40Mzc1IDQwLjYxNTYsMjczLjc1IEw0MC40NDM4LDI3My42NzE5IFogIi8+PHRleHQgZmlsbD0iIzAwMDAwMCIgZm9udC1mYW1pbHk9InNhbnMtc2VyaWYiIGZvbnQtc2l6ZT0iMTIiIGxlbmd0aEFkanVzdD0ic3BhY2luZ0FuZEdseXBocyIgdGV4dExlbmd0aD0iMzUiIHg9IjU1LjkiIHk9IjI4Mi4xNTQzIj5NYXRjaDwvdGV4dD48bGluZSBzdHlsZT0ic3Ryb2tlOiAjQTgwMDM2OyBzdHJva2Utd2lkdGg6IDEuNTsiIHgxPSI3IiB4Mj0iMTEwIiB5MT0iMjk0IiB5Mj0iMjk0Ii8+PHJlY3QgZmlsbD0ibm9uZSIgaGVpZ2h0PSI2IiBzdHlsZT0ic3Ryb2tlOiAjQzgyOTMwOyBzdHJva2Utd2lkdGg6IDEuMDsiIHdpZHRoPSI2IiB4PSIxNCIgeT0iMzAyIi8+PHRleHQgZmlsbD0iIzAwMDAwMCIgZm9udC1mYW1pbHk9InNhbnMtc2VyaWYiIGZvbnQtc2l6ZT0iMTEiIGxlbmd0aEFkanVzdD0ic3BhY2luZ0FuZEdseXBocyIgdGV4dExlbmd0aD0iMjYiIHg9IjI2IiB5PSIzMDguMjEwNCI+ZGF0ZTwvdGV4dD48cmVjdCBmaWxsPSJub25lIiBoZWlnaHQ9IjYiIHN0eWxlPSJzdHJva2U6ICNDODI5MzA7IHN0cm9rZS13aWR0aDogMS4wOyIgd2lkdGg9IjYiIHg9IjE0IiB5PSIzMTQuODA0NyIvPjx0ZXh0IGZpbGw9IiMwMDAwMDAiIGZvbnQtZmFtaWx5PSJzYW5zLXNlcmlmIiBmb250LXNpemU9IjExIiBsZW5ndGhBZGp1c3Q9InNwYWNpbmdBbmRHbHlwaHMiIHRleHRMZW5ndGg9IjU5IiB4PSIyNiIgeT0iMzIxLjAxNTEiPnBhcnRpY2lwYW50PC90ZXh0PjxsaW5lIHN0eWxlPSJzdHJva2U6ICNBODAwMzY7IHN0cm9rZS13aWR0aDogMS41OyIgeDE9IjciIHgyPSIxMTAiIHkxPSIzMjcuNjA5NCIgeTI9IjMyNy42MDk0Ii8+PHJlY3QgZmlsbD0iI0YyNEQ1QyIgaGVpZ2h0PSI2IiBzdHlsZT0ic3Ryb2tlOiAjQzgyOTMwOyBzdHJva2Utd2lkdGg6IDEuMDsiIHdpZHRoPSI2IiB4PSIxNCIgeT0iMzM1LjYwOTQiLz48dGV4dCBmaWxsPSIjMDAwMDAwIiBmb250LWZhbWlseT0ic2Fucy1zZXJpZiIgZm9udC1zaXplPSIxMSIgbGVuZ3RoQWRqdXN0PSJzcGFjaW5nQW5kR2x5cGhzIiB0ZXh0TGVuZ3RoPSI3OSIgeD0iMjYiIHk9IjM0MS44MTk4Ij5tYXRjaCByZXN1bHQoKTwvdGV4dD48IS0tTUQ1PVtkZmIwODQ1Yjg0OTJmZmUwN2IxY2U1MGUwMDMwMzRkN10KY2xhc3MgVGVhbS0tPjxyZWN0IGZpbGw9IiNGRUZFQ0UiIGZpbHRlcj0idXJsKCNmNTFmNDl6bDZhYXhiKSIgaGVpZ2h0PSI3My42MDk0IiBpZD0iVGVhbSIgc3R5bGU9InN0cm9rZTogI0E4MDAzNjsgc3Ryb2tlLXdpZHRoOiAxLjU7IiB3aWR0aD0iNjUiIHg9IjE0NiIgeT0iMjY4Ii8+PGVsbGlwc2UgY3g9IjE2MSIgY3k9IjI4NCIgZmlsbD0iI0FERDFCMiIgcng9IjExIiByeT0iMTEiIHN0eWxlPSJzdHJva2U6ICNBODAwMzY7IHN0cm9rZS13aWR0aDogMS4wOyIvPjxwYXRoIGQ9Ik0xNjMuMzQzOCwyNzkuNjcxOSBDMTYyLjQwNjMsMjc5LjIzNDQgMTYxLjgxMjUsMjc5LjA5MzggMTYwLjkzNzUsMjc5LjA5MzggQzE1OC4zMTI1LDI3OS4wOTM4IDE1Ni4zMTI1LDI4MS4xNzE5IDE1Ni4zMTI1LDI4My44OTA2IEwxNTYuMzEyNSwyODUuMDE1NiBDMTU2LjMxMjUsMjg3LjU5MzggMTU4LjQyMTksMjg5LjQ4NDQgMTYxLjMxMjUsMjg5LjQ4NDQgQzE2Mi41MzEzLDI4OS40ODQ0IDE2My42ODc1LDI4OS4xODc1IDE2NC40Mzc1LDI4OC42NDA2IEMxNjUuMDE1NiwyODguMjM0NCAxNjUuMzQzOCwyODcuNzgxMyAxNjUuMzQzOCwyODcuMzkwNiBDMTY1LjM0MzgsMjg2LjkzNzUgMTY0Ljk1MzEsMjg2LjU0NjkgMTY0LjQ4NDQsMjg2LjU0NjkgQzE2NC4yNjU2LDI4Ni41NDY5IDE2NC4wNjI1LDI4Ni42MjUgMTYzLjg3NSwyODYuODEyNSBDMTYzLjQyMTksMjg3LjI5NjkgMTYzLjQyMTksMjg3LjI5NjkgMTYzLjIzNDQsMjg3LjM5MDYgQzE2Mi44MTI1LDI4Ny42NTYzIDE2Mi4xMjUsMjg3Ljc4MTMgMTYxLjM1OTQsMjg3Ljc4MTMgQzE1OS4zMTI1LDI4Ny43ODEzIDE1OC4wMTU2LDI4Ni42ODc1IDE1OC4wMTU2LDI4NC45ODQ0IEwxNTguMDE1NiwyODMuODkwNiBDMTU4LjAxNTYsMjgyLjEwOTQgMTU5LjI2NTYsMjgwLjc5NjkgMTYxLDI4MC43OTY5IEMxNjEuNTc4MSwyODAuNzk2OSAxNjIuMTg3NSwyODAuOTUzMSAxNjIuNjU2MywyODEuMjAzMSBDMTYzLjE0MDYsMjgxLjQ4NDQgMTYzLjMxMjUsMjgxLjcwMzEgMTYzLjQwNjMsMjgyLjEwOTQgQzE2My40Njg4LDI4Mi41MTU2IDE2My41LDI4Mi42NDA2IDE2My42NDA2LDI4Mi43NjU2IEMxNjMuNzgxMywyODIuOTA2MyAxNjQuMDE1NiwyODMuMDE1NiAxNjQuMjM0NCwyODMuMDE1NiBDMTY0LjUsMjgzLjAxNTYgMTY0Ljc2NTYsMjgyLjg3NSAxNjQuOTM3NSwyODIuNjU2MyBDMTY1LjA0NjksMjgyLjUgMTY1LjA3ODEsMjgyLjMxMjUgMTY1LjA3ODEsMjgxLjg5MDYgTDE2NS4wNzgxLDI4MC40Njg4IEMxNjUuMDc4MSwyODAuMDMxMyAxNjUuMDYyNSwyNzkuOTA2MyAxNjQuOTY4OCwyNzkuNzUgQzE2NC44MTI1LDI3OS40ODQ0IDE2NC41MzEzLDI3OS4zNDM4IDE2NC4yMzQ0LDI3OS4zNDM4IEMxNjMuOTM3NSwyNzkuMzQzOCAxNjMuNzM0NCwyNzkuNDM3NSAxNjMuNTE1NiwyNzkuNzUgTDE2My4zNDM4LDI3OS42NzE5IFogIi8+PHRleHQgZmlsbD0iIzAwMDAwMCIgZm9udC1mYW1pbHk9InNhbnMtc2VyaWYiIGZvbnQtc2l6ZT0iMTIiIGxlbmd0aEFkanVzdD0ic3BhY2luZ0FuZEdseXBocyIgdGV4dExlbmd0aD0iMzMiIHg9IjE3NSIgeT0iMjg4LjE1NDMiPlRlYW08L3RleHQ+PGxpbmUgc3R5bGU9InN0cm9rZTogI0E4MDAzNjsgc3Ryb2tlLXdpZHRoOiAxLjU7IiB4MT0iMTQ3IiB4Mj0iMjEwIiB5MT0iMzAwIiB5Mj0iMzAwIi8+PHJlY3QgZmlsbD0ibm9uZSIgaGVpZ2h0PSI2IiBzdHlsZT0ic3Ryb2tlOiAjQzgyOTMwOyBzdHJva2Utd2lkdGg6IDEuMDsiIHdpZHRoPSI2IiB4PSIxNTQiIHk9IjMwOCIvPjx0ZXh0IGZpbGw9IiMwMDAwMDAiIGZvbnQtZmFtaWx5PSJzYW5zLXNlcmlmIiBmb250LXNpemU9IjExIiBsZW5ndGhBZGp1c3Q9InNwYWNpbmdBbmRHbHlwaHMiIHRleHRMZW5ndGg9IjMzIiB4PSIxNjYiIHk9IjMxNC4yMTA0Ij5uYW1lPC90ZXh0PjxyZWN0IGZpbGw9Im5vbmUiIGhlaWdodD0iNiIgc3R5bGU9InN0cm9rZTogI0M4MjkzMDsgc3Ryb2tlLXdpZHRoOiAxLjA7IiB3aWR0aD0iNiIgeD0iMTU0IiB5PSIzMjAuODA0NyIvPjx0ZXh0IGZpbGw9IiMwMDAwMDAiIGZvbnQtZmFtaWx5PSJzYW5zLXNlcmlmIiBmb250LXNpemU9IjExIiBsZW5ndGhBZGp1c3Q9InNwYWNpbmdBbmRHbHlwaHMiIHRleHRMZW5ndGg9IjEyIiB4PSIxNjYiIHk9IjMyNy4wMTUxIj5JRDwvdGV4dD48bGluZSBzdHlsZT0ic3Ryb2tlOiAjQTgwMDM2OyBzdHJva2Utd2lkdGg6IDEuNTsiIHgxPSIxNDciIHgyPSIyMTAiIHkxPSIzMzMuNjA5NCIgeTI9IjMzMy42MDk0Ii8+PCEtLU1ENT1bMmNiNDdiYTYzN2EwZDE5NTgzZTYxOTk0NTZmNmFkMGJdCmNsYXNzIFBsYXllci0tPjxyZWN0IGZpbGw9IiNGRUZFQ0UiIGZpbHRlcj0idXJsKCNmNTFmNDl6bDZhYXhiKSIgaGVpZ2h0PSI4Ni40MTQxIiBpZD0iUGxheWVyIiBzdHlsZT0ic3Ryb2tlOiAjQTgwMDM2OyBzdHJva2Utd2lkdGg6IDEuNTsiIHdpZHRoPSI2OCIgeD0iMTQ0LjUiIHk9IjQwOCIvPjxlbGxpcHNlIGN4PSIxNTkuNSIgY3k9IjQyNCIgZmlsbD0iI0FERDFCMiIgcng9IjExIiByeT0iMTEiIHN0eWxlPSJzdHJva2U6ICNBODAwMzY7IHN0cm9rZS13aWR0aDogMS4wOyIvPjxwYXRoIGQ9Ik0xNjEuODQzOCw0MTkuNjcxOSBDMTYwLjkwNjMsNDE5LjIzNDQgMTYwLjMxMjUsNDE5LjA5MzggMTU5LjQzNzUsNDE5LjA5MzggQzE1Ni44MTI1LDQxOS4wOTM4IDE1NC44MTI1LDQyMS4xNzE5IDE1NC44MTI1LDQyMy44OTA2IEwxNTQuODEyNSw0MjUuMDE1NiBDMTU0LjgxMjUsNDI3LjU5MzggMTU2LjkyMTksNDI5LjQ4NDQgMTU5LjgxMjUsNDI5LjQ4NDQgQzE2MS4wMzEzLDQyOS40ODQ0IDE2Mi4xODc1LDQyOS4xODc1IDE2Mi45Mzc1LDQyOC42NDA2IEMxNjMuNTE1Niw0MjguMjM0NCAxNjMuODQzOCw0MjcuNzgxMyAxNjMuODQzOCw0MjcuMzkwNiBDMTYzLjg0MzgsNDI2LjkzNzUgMTYzLjQ1MzEsNDI2LjU0NjkgMTYyLjk4NDQsNDI2LjU0NjkgQzE2Mi43NjU2LDQyNi41NDY5IDE2Mi41NjI1LDQyNi42MjUgMTYyLjM3NSw0MjYuODEyNSBDMTYxLjkyMTksNDI3LjI5NjkgMTYxLjkyMTksNDI3LjI5NjkgMTYxLjczNDQsNDI3LjM5MDYgQzE2MS4zMTI1LDQyNy42NTYzIDE2MC42MjUsNDI3Ljc4MTMgMTU5Ljg1OTQsNDI3Ljc4MTMgQzE1Ny44MTI1LDQyNy43ODEzIDE1Ni41MTU2LDQyNi42ODc1IDE1Ni41MTU2LDQyNC45ODQ0IEwxNTYuNTE1Niw0MjMuODkwNiBDMTU2LjUxNTYsNDIyLjEwOTQgMTU3Ljc2NTYsNDIwLjc5NjkgMTU5LjUsNDIwLjc5NjkgQzE2MC4wNzgxLDQyMC43OTY5IDE2MC42ODc1LDQyMC45NTMxIDE2MS4xNTYzLDQyMS4yMDMxIEMxNjEuNjQwNiw0MjEuNDg0NCAxNjEuODEyNSw0MjEuNzAzMSAxNjEuOTA2Myw0MjIuMTA5NCBDMTYxLjk2ODgsNDIyLjUxNTYgMTYyLDQyMi42NDA2IDE2Mi4xNDA2LDQyMi43NjU2IEMxNjIuMjgxMyw0MjIuOTA2MyAxNjIuNTE1Niw0MjMuMDE1NiAxNjIuNzM0NCw0MjMuMDE1NiBDMTYzLDQyMy4wMTU2IDE2My4yNjU2LDQyMi44NzUgMTYzLjQzNzUsNDIyLjY1NjMgQzE2My41NDY5LDQyMi41IDE2My41NzgxLDQyMi4zMTI1IDE2My41NzgxLDQyMS44OTA2IEwxNjMuNTc4MSw0MjAuNDY4OCBDMTYzLjU3ODEsNDIwLjAzMTMgMTYzLjU2MjUsNDE5LjkwNjMgMTYzLjQ2ODgsNDE5Ljc1IEMxNjMuMzEyNSw0MTkuNDg0NCAxNjMuMDMxMyw0MTkuMzQzOCAxNjIuNzM0NCw0MTkuMzQzOCBDMTYyLjQzNzUsNDE5LjM0MzggMTYyLjIzNDQsNDE5LjQzNzUgMTYyLjAxNTYsNDE5Ljc1IEwxNjEuODQzOCw0MTkuNjcxOSBaICIvPjx0ZXh0IGZpbGw9IiMwMDAwMDAiIGZvbnQtZmFtaWx5PSJzYW5zLXNlcmlmIiBmb250LXNpemU9IjEyIiBsZW5ndGhBZGp1c3Q9InNwYWNpbmdBbmRHbHlwaHMiIHRleHRMZW5ndGg9IjM2IiB4PSIxNzMuNSIgeT0iNDI4LjE1NDMiPlBsYXllcjwvdGV4dD48bGluZSBzdHlsZT0ic3Ryb2tlOiAjQTgwMDM2OyBzdHJva2Utd2lkdGg6IDEuNTsiIHgxPSIxNDUuNSIgeDI9IjIxMS41IiB5MT0iNDQwIiB5Mj0iNDQwIi8+PHJlY3QgZmlsbD0ibm9uZSIgaGVpZ2h0PSI2IiBzdHlsZT0ic3Ryb2tlOiAjQzgyOTMwOyBzdHJva2Utd2lkdGg6IDEuMDsiIHdpZHRoPSI2IiB4PSIxNTIuNSIgeT0iNDQ4Ii8+PHRleHQgZmlsbD0iIzAwMDAwMCIgZm9udC1mYW1pbHk9InNhbnMtc2VyaWYiIGZvbnQtc2l6ZT0iMTEiIGxlbmd0aEFkanVzdD0ic3BhY2luZ0FuZEdseXBocyIgdGV4dExlbmd0aD0iMzMiIHg9IjE2NC41IiB5PSI0NTQuMjEwNCI+bmFtZTwvdGV4dD48cmVjdCBmaWxsPSJub25lIiBoZWlnaHQ9IjYiIHN0eWxlPSJzdHJva2U6ICNDODI5MzA7IHN0cm9rZS13aWR0aDogMS4wOyIgd2lkdGg9IjYiIHg9IjE1Mi41IiB5PSI0NjAuODA0NyIvPjx0ZXh0IGZpbGw9IiMwMDAwMDAiIGZvbnQtZmFtaWx5PSJzYW5zLXNlcmlmIiBmb250LXNpemU9IjExIiBsZW5ndGhBZGp1c3Q9InNwYWNpbmdBbmRHbHlwaHMiIHRleHRMZW5ndGg9IjEyIiB4PSIxNjQuNSIgeT0iNDY3LjAxNTEiPklEPC90ZXh0PjxsaW5lIHN0eWxlPSJzdHJva2U6ICNBODAwMzY7IHN0cm9rZS13aWR0aDogMS41OyIgeDE9IjE0NS41IiB4Mj0iMjExLjUiIHkxPSI0NzMuNjA5NCIgeTI9IjQ3My42MDk0Ii8+PHJlY3QgZmlsbD0iI0YyNEQ1QyIgaGVpZ2h0PSI2IiBzdHlsZT0ic3Ryb2tlOiAjQzgyOTMwOyBzdHJva2Utd2lkdGg6IDEuMDsiIHdpZHRoPSI2IiB4PSIxNTIuNSIgeT0iNDgxLjYwOTQiLz48dGV4dCBmaWxsPSIjMDAwMDAwIiBmb250LWZhbWlseT0ic2Fucy1zZXJpZiIgZm9udC1zaXplPSIxMSIgbGVuZ3RoQWRqdXN0PSJzcGFjaW5nQW5kR2x5cGhzIiB0ZXh0TGVuZ3RoPSI0MiIgeD0iMTY0LjUiIHk9IjQ4Ny44MTk4Ij5zZXR0ZXIoKTwvdGV4dD48IS0tTUQ1PVtkZjc2ZTc2MGYyMDYyMTg4ZDQ0Zjk4YzIxYTg4OTk5Yl0KY2xhc3MgVUktLT48cmVjdCBmaWxsPSIjRkVGRUNFIiBmaWx0ZXI9InVybCgjZjUxZjQ5emw2YWF4YikiIGhlaWdodD0iNzMuNjA5NCIgaWQ9IlVJIiBzdHlsZT0ic3Ryb2tlOiAjQTgwMDM2OyBzdHJva2Utd2lkdGg6IDEuNTsiIHdpZHRoPSIxMTUiIHg9IjI0OCIgeT0iMTIyIi8+PGVsbGlwc2UgY3g9IjI5NS4yNSIgY3k9IjEzOCIgZmlsbD0iI0FERDFCMiIgcng9IjExIiByeT0iMTEiIHN0eWxlPSJzdHJva2U6ICNBODAwMzY7IHN0cm9rZS13aWR0aDogMS4wOyIvPjxwYXRoIGQ9Ik0yOTcuNTkzOCwxMzMuNjcxOSBDMjk2LjY1NjMsMTMzLjIzNDQgMjk2LjA2MjUsMTMzLjA5MzggMjk1LjE4NzUsMTMzLjA5MzggQzI5Mi41NjI1LDEzMy4wOTM4IDI5MC41NjI1LDEzNS4xNzE5IDI5MC41NjI1LDEzNy44OTA2IEwyOTAuNTYyNSwxMzkuMDE1NiBDMjkwLjU2MjUsMTQxLjU5MzggMjkyLjY3MTksMTQzLjQ4NDQgMjk1LjU2MjUsMTQzLjQ4NDQgQzI5Ni43ODEzLDE0My40ODQ0IDI5Ny45Mzc1LDE0My4xODc1IDI5OC42ODc1LDE0Mi42NDA2IEMyOTkuMjY1NiwxNDIuMjM0NCAyOTkuNTkzOCwxNDEuNzgxMyAyOTkuNTkzOCwxNDEuMzkwNiBDMjk5LjU5MzgsMTQwLjkzNzUgMjk5LjIwMzEsMTQwLjU0NjkgMjk4LjczNDQsMTQwLjU0NjkgQzI5OC41MTU2LDE0MC41NDY5IDI5OC4zMTI1LDE0MC42MjUgMjk4LjEyNSwxNDAuODEyNSBDMjk3LjY3MTksMTQxLjI5NjkgMjk3LjY3MTksMTQxLjI5NjkgMjk3LjQ4NDQsMTQxLjM5MDYgQzI5Ny4wNjI1LDE0MS42NTYzIDI5Ni4zNzUsMTQxLjc4MTMgMjk1LjYwOTQsMTQxLjc4MTMgQzI5My41NjI1LDE0MS43ODEzIDI5Mi4yNjU2LDE0MC42ODc1IDI5Mi4yNjU2LDEzOC45ODQ0IEwyOTIuMjY1NiwxMzcuODkwNiBDMjkyLjI2NTYsMTM2LjEwOTQgMjkzLjUxNTYsMTM0Ljc5NjkgMjk1LjI1LDEzNC43OTY5IEMyOTUuODI4MSwxMzQuNzk2OSAyOTYuNDM3NSwxMzQuOTUzMSAyOTYuOTA2MywxMzUuMjAzMSBDMjk3LjM5MDYsMTM1LjQ4NDQgMjk3LjU2MjUsMTM1LjcwMzEgMjk3LjY1NjMsMTM2LjEwOTQgQzI5Ny43MTg4LDEzNi41MTU2IDI5Ny43NSwxMzYuNjQwNiAyOTcuODkwNiwxMzYuNzY1NiBDMjk4LjAzMTMsMTM2LjkwNjMgMjk4LjI2NTYsMTM3LjAxNTYgMjk4LjQ4NDQsMTM3LjAxNTYgQzI5OC43NSwxMzcuMDE1NiAyOTkuMDE1NiwxMzYuODc1IDI5OS4xODc1LDEzNi42NTYzIEMyOTkuMjk2OSwxMzYuNSAyOTkuMzI4MSwxMzYuMzEyNSAyOTkuMzI4MSwxMzUuODkwNiBMMjk5LjMyODEsMTM0LjQ2ODggQzI5OS4zMjgxLDEzNC4wMzEzIDI5OS4zMTI1LDEzMy45MDYzIDI5OS4yMTg4LDEzMy43NSBDMjk5LjA2MjUsMTMzLjQ4NDQgMjk4Ljc4MTMsMTMzLjM0MzggMjk4LjQ4NDQsMTMzLjM0MzggQzI5OC4xODc1LDEzMy4zNDM4IDI5Ny45ODQ0LDEzMy40Mzc1IDI5Ny43NjU2LDEzMy43NSBMMjk3LjU5MzgsMTMzLjY3MTkgWiAiLz48dGV4dCBmaWxsPSIjMDAwMDAwIiBmb250LWZhbWlseT0ic2Fucy1zZXJpZiIgZm9udC1zaXplPSIxMiIgbGVuZ3RoQWRqdXN0PSJzcGFjaW5nQW5kR2x5cGhzIiB0ZXh0TGVuZ3RoPSIxMiIgeD0iMzE1Ljc1IiB5PSIxNDIuMTU0MyI+VUk8L3RleHQ+PGxpbmUgc3R5bGU9InN0cm9rZTogI0E4MDAzNjsgc3Ryb2tlLXdpZHRoOiAxLjU7IiB4MT0iMjQ5IiB4Mj0iMzYyIiB5MT0iMTU0IiB5Mj0iMTU0Ii8+PHJlY3QgZmlsbD0ibm9uZSIgaGVpZ2h0PSI2IiBzdHlsZT0ic3Ryb2tlOiAjQzgyOTMwOyBzdHJva2Utd2lkdGg6IDEuMDsiIHdpZHRoPSI2IiB4PSIyNTYiIHk9IjE2MiIvPjx0ZXh0IGZpbGw9IiMwMDAwMDAiIGZvbnQtZmFtaWx5PSJzYW5zLXNlcmlmIiBmb250LXNpemU9IjExIiBsZW5ndGhBZGp1c3Q9InNwYWNpbmdBbmRHbHlwaHMiIHRleHRMZW5ndGg9IjEyIiB4PSIyNjgiIHk9IjE2OC4yMTA0Ij5JTzwvdGV4dD48bGluZSBzdHlsZT0ic3Ryb2tlOiAjQTgwMDM2OyBzdHJva2Utd2lkdGg6IDEuNTsiIHgxPSIyNDkiIHgyPSIzNjIiIHkxPSIxNzQuODA0NyIgeTI9IjE3NC44MDQ3Ii8+PHJlY3QgZmlsbD0iI0YyNEQ1QyIgaGVpZ2h0PSI2IiBzdHlsZT0ic3Ryb2tlOiAjQzgyOTMwOyBzdHJva2Utd2lkdGg6IDEuMDsiIHdpZHRoPSI2IiB4PSIyNTYiIHk9IjE4Mi44MDQ3Ii8+PHRleHQgZmlsbD0iIzAwMDAwMCIgZm9udC1mYW1pbHk9InNhbnMtc2VyaWYiIGZvbnQtc2l6ZT0iMTEiIGxlbmd0aEFkanVzdD0ic3BhY2luZ0FuZEdseXBocyIgdGV4dExlbmd0aD0iODkiIHg9IjI2OCIgeT0iMTg5LjAxNTEiPmdldCBzZXQgcGxheWVyKCk8L3RleHQ+PCEtLU1ENT1bOGQ2OTA5ZDA0NGFjMGMzODU0MTFiODE3MGIwYmZjNDNdCmNsYXNzIElPLS0+PHJlY3QgZmlsbD0iI0ZFRkVDRSIgZmlsdGVyPSJ1cmwoI2Y1MWY0OXpsNmFheGIpIiBoZWlnaHQ9IjQ4IiBpZD0iSU8iIHN0eWxlPSJzdHJva2U6ICNBODAwMzY7IHN0cm9rZS13aWR0aDogMS41OyIgd2lkdGg9IjQ1IiB4PSIyODMiIHk9IjI4MSIvPjxlbGxpcHNlIGN4PSIyOTgiIGN5PSIyOTciIGZpbGw9IiNBREQxQjIiIHJ4PSIxMSIgcnk9IjExIiBzdHlsZT0ic3Ryb2tlOiAjQTgwMDM2OyBzdHJva2Utd2lkdGg6IDEuMDsiLz48cGF0aCBkPSJNMzAwLjM0MzgsMjkyLjY3MTkgQzI5OS40MDYzLDI5Mi4yMzQ0IDI5OC44MTI1LDI5Mi4wOTM4IDI5Ny45Mzc1LDI5Mi4wOTM4IEMyOTUuMzEyNSwyOTIuMDkzOCAyOTMuMzEyNSwyOTQuMTcxOSAyOTMuMzEyNSwyOTYuODkwNiBMMjkzLjMxMjUsMjk4LjAxNTYgQzI5My4zMTI1LDMwMC41OTM4IDI5NS40MjE5LDMwMi40ODQ0IDI5OC4zMTI1LDMwMi40ODQ0IEMyOTkuNTMxMywzMDIuNDg0NCAzMDAuNjg3NSwzMDIuMTg3NSAzMDEuNDM3NSwzMDEuNjQwNiBDMzAyLjAxNTYsMzAxLjIzNDQgMzAyLjM0MzgsMzAwLjc4MTMgMzAyLjM0MzgsMzAwLjM5MDYgQzMwMi4zNDM4LDI5OS45Mzc1IDMwMS45NTMxLDI5OS41NDY5IDMwMS40ODQ0LDI5OS41NDY5IEMzMDEuMjY1NiwyOTkuNTQ2OSAzMDEuMDYyNSwyOTkuNjI1IDMwMC44NzUsMjk5LjgxMjUgQzMwMC40MjE5LDMwMC4yOTY5IDMwMC40MjE5LDMwMC4yOTY5IDMwMC4yMzQ0LDMwMC4zOTA2IEMyOTkuODEyNSwzMDAuNjU2MyAyOTkuMTI1LDMwMC43ODEzIDI5OC4zNTk0LDMwMC43ODEzIEMyOTYuMzEyNSwzMDAuNzgxMyAyOTUuMDE1NiwyOTkuNjg3NSAyOTUuMDE1NiwyOTcuOTg0NCBMMjk1LjAxNTYsMjk2Ljg5MDYgQzI5NS4wMTU2LDI5NS4xMDk0IDI5Ni4yNjU2LDI5My43OTY5IDI5OCwyOTMuNzk2OSBDMjk4LjU3ODEsMjkzLjc5NjkgMjk5LjE4NzUsMjkzLjk1MzEgMjk5LjY1NjMsMjk0LjIwMzEgQzMwMC4xNDA2LDI5NC40ODQ0IDMwMC4zMTI1LDI5NC43MDMxIDMwMC40MDYzLDI5NS4xMDk0IEMzMDAuNDY4OCwyOTUuNTE1NiAzMDAuNSwyOTUuNjQwNiAzMDAuNjQwNiwyOTUuNzY1NiBDMzAwLjc4MTMsMjk1LjkwNjMgMzAxLjAxNTYsMjk2LjAxNTYgMzAxLjIzNDQsMjk2LjAxNTYgQzMwMS41LDI5Ni4wMTU2IDMwMS43NjU2LDI5NS44NzUgMzAxLjkzNzUsMjk1LjY1NjMgQzMwMi4wNDY5LDI5NS41IDMwMi4wNzgxLDI5NS4zMTI1IDMwMi4wNzgxLDI5NC44OTA2IEwzMDIuMDc4MSwyOTMuNDY4OCBDMzAyLjA3ODEsMjkzLjAzMTMgMzAyLjA2MjUsMjkyLjkwNjMgMzAxLjk2ODgsMjkyLjc1IEMzMDEuODEyNSwyOTIuNDg0NCAzMDEuNTMxMywyOTIuMzQzOCAzMDEuMjM0NCwyOTIuMzQzOCBDMzAwLjkzNzUsMjkyLjM0MzggMzAwLjczNDQsMjkyLjQzNzUgMzAwLjUxNTYsMjkyLjc1IEwzMDAuMzQzOCwyOTIuNjcxOSBaICIvPjx0ZXh0IGZpbGw9IiMwMDAwMDAiIGZvbnQtZmFtaWx5PSJzYW5zLXNlcmlmIiBmb250LXNpemU9IjEyIiBsZW5ndGhBZGp1c3Q9InNwYWNpbmdBbmRHbHlwaHMiIHRleHRMZW5ndGg9IjEzIiB4PSIzMTIiIHk9IjMwMS4xNTQzIj5JTzwvdGV4dD48bGluZSBzdHlsZT0ic3Ryb2tlOiAjQTgwMDM2OyBzdHJva2Utd2lkdGg6IDEuNTsiIHgxPSIyODQiIHgyPSIzMjciIHkxPSIzMTMiIHkyPSIzMTMiLz48bGluZSBzdHlsZT0ic3Ryb2tlOiAjQTgwMDM2OyBzdHJva2Utd2lkdGg6IDEuNTsiIHgxPSIyODQiIHgyPSIzMjciIHkxPSIzMjEiIHkyPSIzMjEiLz48IS0tTUQ1PVs2NTMxZTcxMDJjNDlhZmNlMTU1ZjkyNDJjMGQ3OTk0Zl0KcmV2ZXJzZSBsaW5rIE1haW4gdG8gVG91cm5hbWVudC0tPjxwYXRoIGQ9Ik0xOTguNiw3My40NyBDMTg5LjkxLDg3LjA1IDE4MC4xOSwxMDIuMjMgMTcxLjQyLDExNS45NCAiIGZpbGw9Im5vbmUiIGlkPSJNYWluJmx0Oy1Ub3VybmFtZW50IiBzdHlsZT0ic3Ryb2tlOiAjQTgwMDM2OyBzdHJva2Utd2lkdGg6IDEuMDsiLz48cG9seWdvbiBmaWxsPSJub25lIiBwb2ludHM9IjE5Mi45Niw2OS4yOSwyMDkuNjQsNTYuMjIsMjA0Ljc1LDc2Ljg0LDE5Mi45Niw2OS4yOSIgc3R5bGU9InN0cm9rZTogI0E4MDAzNjsgc3Ryb2tlLXdpZHRoOiAxLjA7Ii8+PCEtLU1ENT1bY2EwZDUwMjVlMDQwZTNlNWFkYTQ1YzMyMWI2NmE0NTNdCnJldmVyc2UgbGluayBUb3VybmFtZW50IHRvIFRlYW0tLT48cGF0aCBkPSJNMTU3LjQ1LDIxNC44NSBDMTYxLjYxLDIzMi40OCAxNjYuMTIsMjUxLjU2IDE2OS44OSwyNjcuNTMgIiBmaWxsPSJub25lIiBpZD0iVG91cm5hbWVudCZsdDstVGVhbSIgc3R5bGU9InN0cm9rZTogI0E4MDAzNjsgc3Ryb2tlLXdpZHRoOiAxLjA7Ii8+PHBvbHlnb24gZmlsbD0iI0ZGRkZGRiIgcG9pbnRzPSIxNTQuNDMsMjAyLjA0LDE1MS45MjE2LDIwOC44MDA4LDE1Ny4xOTc2LDIxMy43MTY1LDE1OS43MDU5LDIwNi45NTU3LDE1NC40MywyMDIuMDQiIHN0eWxlPSJzdHJva2U6ICNBODAwMzY7IHN0cm9rZS13aWR0aDogMS4wOyIvPjwhLS1NRDU9WzZiNTVjNDdjNTgxMGFmZWRlYzVjZDljZGM5NDM2MjZjXQpyZXZlcnNlIGxpbmsgVGVhbSB0byBQbGF5ZXItLT48cGF0aCBkPSJNMTc4LjUsMzU1LjUxIEMxNzguNSwzNzIuNTMgMTc4LjUsMzkxLjQxIDE3OC41LDQwNy44ICIgZmlsbD0ibm9uZSIgaWQ9IlRlYW0mbHQ7LVBsYXllciIgc3R5bGU9InN0cm9rZTogI0E4MDAzNjsgc3Ryb2tlLXdpZHRoOiAxLjA7Ii8+PHBvbHlnb24gZmlsbD0iI0ZGRkZGRiIgcG9pbnRzPSIxNzguNSwzNDIuMzQsMTc0LjUsMzQ4LjM0LDE3OC41LDM1NC4zNCwxODIuNSwzNDguMzQsMTc4LjUsMzQyLjM0IiBzdHlsZT0ic3Ryb2tlOiAjQTgwMDM2OyBzdHJva2Utd2lkdGg6IDEuMDsiLz48IS0tTUQ1PVswYTE2Y2E0MDRkODYzOWFhMjNhNzY1NmUyZjU4YmYxOF0KcmV2ZXJzZSBsaW5rIE1haW4gdG8gVUktLT48cGF0aCBkPSJNMjUwLjU3LDczLjIzIEMyNjAuNjUsODguNzkgMjcyLjExLDEwNi40NyAyODEuOTQsMTIxLjY0ICIgZmlsbD0ibm9uZSIgaWQ9Ik1haW4mbHQ7LVVJIiBzdHlsZT0ic3Ryb2tlOiAjQTgwMDM2OyBzdHJva2Utd2lkdGg6IDEuMDsiLz48cG9seWdvbiBmaWxsPSJub25lIiBwb2ludHM9IjI0NC41NSw3Ni44MSwyMzkuNTUsNTYuMjIsMjU2LjMsNjkuMiwyNDQuNTUsNzYuODEiIHN0eWxlPSJzdHJva2U6ICNBODAwMzY7IHN0cm9rZS13aWR0aDogMS4wOyIvPjwhLS1NRDU9WzgzNWVhYjc0MWVjOWVjNjI0MWYwYWUyMWEwNjAzZmYwXQpyZXZlcnNlIGxpbmsgVG91cm5hbWVudCB0byBNYXRjaC0tPjxwYXRoIGQ9Ik0xMTIuNjMsMjEzLjM2IEMxMDMuMTIsMjI5LjI5IDkyLjgyLDI0Ni41NCA4My43OSwyNjEuNjYgIiBmaWxsPSJub25lIiBpZD0iVG91cm5hbWVudCZsdDstTWF0Y2giIHN0eWxlPSJzdHJva2U6ICNBODAwMzY7IHN0cm9rZS13aWR0aDogMS4wOyIvPjxwb2x5Z29uIGZpbGw9IiNBODAwMzYiIHBvaW50cz0iMTE5LjM5LDIwMi4wNCwxMTIuODgwNiwyMDUuMTQyOSwxMTMuMjQxMywyMTIuMzQ1LDExOS43NTA3LDIwOS4yNDIxLDExOS4zOSwyMDIuMDQiIHN0eWxlPSJzdHJva2U6ICNBODAwMzY7IHN0cm9rZS13aWR0aDogMS4wOyIvPjwhLS1NRDU9WzZlNmNlMTY2NTQwMDQ4NWYxYjY2MzQ0ZjljMjQ5Y2Q1XQpyZXZlcnNlIGxpbmsgVUkgdG8gSU8tLT48cGF0aCBkPSJNMzA1LjUsMjA5LjY0IEMzMDUuNSwyMzMuNzYgMzA1LjUsMjYxLjYgMzA1LjUsMjgwLjc1ICIgZmlsbD0ibm9uZSIgaWQ9IlVJJmx0Oy1JTyIgc3R5bGU9InN0cm9rZTogI0E4MDAzNjsgc3Ryb2tlLXdpZHRoOiAxLjA7Ii8+PHBvbHlnb24gZmlsbD0iI0E4MDAzNiIgcG9pbnRzPSIzMDUuNSwxOTYuMzQsMzAxLjUsMjAyLjM0LDMwNS41LDIwOC4zNCwzMDkuNSwyMDIuMzQsMzA1LjUsMTk2LjM0IiBzdHlsZT0ic3Ryb2tlOiAjQTgwMDM2OyBzdHJva2Utd2lkdGg6IDEuMDsiLz48IS0tTUQ1PVs3MDc3N2ZmZjk5ZWVjMDI0MjZkNGZmYWI1NmZlNGI1MV0KcmV2ZXJzZSBsaW5rIElPIHRvIGRhdGEudHh0LS0+PHBhdGggZD0iTTMwNS41LDM0Mi40OSBDMzA1LjUsMzY5LjAzIDMwNS41LDQwNC4xNiAzMDUuNSw0MjYuOTIgIiBmaWxsPSJub25lIiBpZD0iSU8mbHQ7LWRhdGEudHh0IiBzdHlsZT0ic3Ryb2tlOiAjQTgwMDM2OyBzdHJva2Utd2lkdGg6IDEuMDsiLz48cG9seWdvbiBmaWxsPSIjRkZGRkZGIiBwb2ludHM9IjMwNS41LDMyOS4xNCwzMDEuNSwzMzUuMTQsMzA1LjUsMzQxLjE0LDMwOS41LDMzNS4xNCwzMDUuNSwzMjkuMTQiIHN0eWxlPSJzdHJva2U6ICNBODAwMzY7IHN0cm9rZS13aWR0aDogMS4wOyIvPjwhLS1NRDU9WzFkOTdlNDIzNzUwZDJhOTFkZmE0YWRiNzU1NjY3NTMyXQpAc3RhcnR1bWwNCmNsYXNzIE1haW4gIHsNCg0KfQ0KDQpjbGFzcyBUb3VybmFtZW50ICB7DQotZHVlIGRhdGUNCi10eXBlIG9mIHRvdXJuYW1lbnQNCi1yZXN1bHRzDQp9DQoNCg0KY2xhc3MgTWF0Y2ggIHsNCi1kYXRlDQotcGFydGljaXBhbnQNCi1tYXRjaCByZXN1bHQoKQ0KfQ0KDQpjbGFzcyBUZWFtICB7DQotbmFtZQ0KLUlEDQp9DQoNCmNsYXNzIFBsYXllciAgew0KLW5hbWUNCi1JRA0KLXNldHRlcigpDQp9DQoNCmNsYXNzIFVJICB7DQotSU8NCi1nZXQgc2V0IHBsYXllcigpDQp9DQoNCmNsYXNzIElPICB7DQoNCn0NCg0KDQpNYWluIDx8LSAtIFRvdXJuYW1lbnQNClRvdXJuYW1lbnQgby0gLSBUZWFtDQpUZWFtIG8tIC0gUGxheWVyDQpNYWluIDx8LSAtIFVJDQpUb3VybmFtZW50ICotIC0gTWF0Y2gNClVJICotIC0gSU8NCklPIG8tIC0gZGF0YS50eHQNCkBlbmR1bWwNCgpQbGFudFVNTCB2ZXJzaW9uIDEuMjAyMC4xMShTYXQgTWF5IDMwIDEwOjEzOjQzIFVUQyAyMDIwKQpKYXZhIFJ1bnRpbWU6IE9wZW5KREsgUnVudGltZSBFbnZpcm9ubWVudApKVk06IE9wZW5KREsgNjQtQml0IFNlcnZlciBWTQpEZWZhdWx0IEVuY29kaW5nOiBVVEYtOApMYW5ndWFnZTogZW4KQ291bnRyeTogVVMKLS0+PC9nPjwvc3ZnPg==;" parent="1" vertex="1">
            <mxGeometry x="320" y="60" width="374" height="505" as="geometry" />
          </mxCell>
        </UserObject>
      </root>
    </mxGraphModel>
  </diagram>
</mxfile>
